<svg width="14" height="13" viewBox="0 0 14 13" fill="none" xmlns="http://www.w3.org/2000/svg">
<path d="M13.3 4.78927H3.5V2.81391C3.5 2.13173 3.9746 1.49814 4.6627 1.3873C4.86369 1.35387 5.06972 1.36368 5.26643 1.41606C5.46314 1.46844 5.64579 1.56212 5.80166 1.69058C5.95754 1.81903 6.08287 1.97917 6.16894 2.15982C6.25501 2.34048 6.29973 2.53731 6.3 2.73659H7.7C7.69966 2.35431 7.61746 1.97634 7.45868 1.62698C7.29991 1.27763 7.06807 0.964627 6.77809 0.708121C6.48811 0.451615 6.14641 0.257283 5.77497 0.137629C5.40353 0.0179739 5.01058 -0.0243543 4.6214 0.0133675C3.1661 0.151581 2.1 1.42903 2.1 2.85838V4.78927H0.7C0.514348 4.78927 0.336301 4.86136 0.205025 4.98968C0.0737498 5.118 0 5.29203 0 5.4735V6.84196C0 8.62505 1.1718 10.142 2.8 10.7078V13H4.2V10.9473H9.8V13H11.2V10.7078C12.8282 10.142 14 8.62505 14 6.84196V5.4735C14 5.29203 13.9263 5.118 13.795 4.98968C13.6637 4.86136 13.4857 4.78927 13.3 4.78927Z" fill="black"/>
</svg>
