<svg width="42" height="45" viewBox="0 0 42 45" fill="none" xmlns="http://www.w3.org/2000/svg">
<g filter="url(#filter0_d_412_79)">
<path d="M21 11C19.4093 11.0018 17.8842 11.6233 16.7594 12.728C15.6346 13.8327 15.0019 15.3305 15 16.8929C14.9981 18.1696 15.4227 19.4117 16.2087 20.4286C16.2087 20.4286 16.3724 20.6402 16.3991 20.6707L21 26L25.6031 20.668C25.6271 20.6396 25.7913 20.4286 25.7913 20.4286L25.7918 20.427C26.5774 19.4105 27.0019 18.169 27 16.8929C26.9981 15.3305 26.3654 13.8327 25.2406 12.728C24.1158 11.6233 22.5907 11.0018 21 11ZM21 19.0357C20.5685 19.0357 20.1466 18.91 19.7878 18.6746C19.4291 18.4391 19.1494 18.1044 18.9843 17.7129C18.8191 17.3213 18.7759 16.8905 18.8601 16.4748C18.9443 16.0591 19.1521 15.6773 19.4572 15.3776C19.7624 15.0779 20.1511 14.8739 20.5743 14.7912C20.9976 14.7085 21.4363 14.7509 21.8349 14.9131C22.2336 15.0753 22.5744 15.35 22.8141 15.7023C23.0539 16.0547 23.1818 16.469 23.1818 16.8929C23.1811 17.461 22.951 18.0056 22.542 18.4073C22.133 18.809 21.5784 19.035 21 19.0357Z" fill="black"/>
</g>
<defs>
<filter id="filter0_d_412_79" x="0" y="0" width="42" height="45" filterUnits="userSpaceOnUse" color-interpolation-filters="sRGB">
<feFlood flood-opacity="0" result="BackgroundImageFix"/>
<feColorMatrix in="SourceAlpha" type="matrix" values="0 0 0 0 0 0 0 0 0 0 0 0 0 0 0 0 0 0 127 0" result="hardAlpha"/>
<feOffset dy="4"/>
<feGaussianBlur stdDeviation="7.5"/>
<feComposite in2="hardAlpha" operator="out"/>
<feColorMatrix type="matrix" values="0 0 0 0 0 0 0 0 0 0 0 0 0 0 0 0 0 0 0.15 0"/>
<feBlend mode="normal" in2="BackgroundImageFix" result="effect1_dropShadow_412_79"/>
<feBlend mode="normal" in="SourceGraphic" in2="effect1_dropShadow_412_79" result="shape"/>
</filter>
</defs>
</svg>
