<svg width="13" height="13" viewBox="0 0 13 13" fill="none" xmlns="http://www.w3.org/2000/svg">
<g clip-path="url(#clip0_461_16)">
<path d="M6.24867 0.080638C6.32206 0.0283849 6.40991 0.000305176 6.5 0.000305176C6.59009 0.000305176 6.67794 0.0283849 6.75133 0.080638L12.818 4.41397C12.8742 4.45402 12.9201 4.50692 12.9518 4.56827C12.9834 4.62963 13 4.69766 13 4.76671V12.5667C13 12.6816 12.9543 12.7919 12.8731 12.8731C12.7918 12.9544 12.6816 13 12.5667 13H11.2667V6.0667H1.73333V13H0.433333C0.318406 13 0.208186 12.9544 0.12692 12.8731C0.0456546 12.7919 0 12.6816 0 12.5667V4.76671C4.25718e-05 4.69766 0.0165816 4.62963 0.0482394 4.56827C0.0798973 4.50692 0.125757 4.45402 0.182 4.41397L6.24867 0.080638Z" fill="black"/>
<path fill-rule="evenodd" clip-rule="evenodd" d="M2.6001 13H10.4001V9.53333H2.6001V13ZM7.8001 11.2667H5.2001V10.4H7.8001V11.2667Z" fill="black"/>
<path d="M10.4001 8.66668V6.93335H2.6001V8.66668H10.4001Z" fill="black"/>
</g>
<defs>
<clipPath id="clip0_461_16">
<rect width="13" height="13" fill="white"/>
</clipPath>
</defs>
</svg>
