<svg width="16" height="12" viewBox="0 0 16 12" fill="none" xmlns="http://www.w3.org/2000/svg">
<path d="M14.222 0.666687H1.77756C1.54181 0.666687 1.31572 0.760338 1.14902 0.927036C0.982322 1.09374 0.888672 1.31983 0.888672 1.55558V10.4445C0.888672 10.6802 0.982322 10.9063 1.14902 11.073C1.31572 11.2397 1.54181 11.3334 1.77756 11.3334H14.222C14.4578 11.3334 14.6838 11.2397 14.8505 11.073C15.0172 10.9063 15.1109 10.6802 15.1109 10.4445V1.55558C15.1109 1.31983 15.0172 1.09374 14.8505 0.927036C14.6838 0.760338 14.4578 0.666687 14.222 0.666687ZM13.5376 10.4445H2.51534L5.62645 7.22669L4.98645 6.60891L1.77756 9.92891V2.23113L7.30201 7.72891C7.46855 7.89447 7.69384 7.98739 7.92867 7.98739C8.1635 7.98739 8.38879 7.89447 8.55534 7.72891L14.222 2.09335V9.87113L10.9509 6.60002L10.3242 7.22669L13.5376 10.4445ZM2.35978 1.55558H13.502L7.92867 7.0978L2.35978 1.55558Z" fill="white"/>
</svg>
